IKResults
version=1
nRows=9
nColumns=63
inDegrees=yes

Units are S.I. units (second, meters, Newtons, ...)
If the header above contains a line with 'inDegrees', this indicates whether rotational values are in degrees (yes) or radians (no).

endheader
time	pelvis_tilt	pelvis_list	pelvis_rotation	pelvis_tx	pelvis_ty	pelvis_tz	hip_flexion_r	hip_adduction_r	hip_rotation_r	knee_angle_r	knee_angle_r_beta	ankle_angle_r	subtalar_angle_r	mtp_angle_r	hip_flexion_l	hip_adduction_l	hip_rotation_l	knee_angle_l	knee_angle_l_beta	ankle_angle_l	subtalar_angle_l	mtp_angle_l	L5_S1_Flex_Ext	L5_S1_Lat_Bending	L5_S1_axial_rotation	L4_L5_Flex_Ext	L4_L5_Lat_Bending	L4_L5_axial_rotation	L3_L4_Flex_Ext	L3_L4_Lat_Bending	L3_L4_axial_rotation	L2_L3_Flex_Ext	L2_L3_Lat_Bending	L2_L3_axial_rotation	L1_L2_Flex_Ext	L1_L2_Lat_Bending	L1_L2_axial_rotation	L1_T12_Flex_Ext	L1_T12_Lat_Bending	L1_T12_axial_rotation	Abs_r3	Abs_r2	Abs_r1	Abs_t1	Abs_t2	neck_flexion	neck_bending	neck_rotation	arm_flex_r	arm_add_r	arm_rot_r	elbow_flex_r	pro_sup_r	wrist_flex_r	wrist_dev_r	arm_flex_l	arm_add_l	arm_rot_l	elbow_flex_l	pro_sup_l	wrist_flex_l	wrist_dev_l
      2.03333333	     82.59915842	   -149.27244336	     70.08046090	     -0.77677893	      0.32328066	     -0.12680537	     85.14717997	     28.89038083	     17.15811486	     42.63121028	      0.74405498	      1.87814266	    -15.49128429	      0.00000000	      8.77090549	    -38.74888077	    -18.70207387	     25.51383693	      0.44530046	    -38.01710839	    -19.35324861	      0.00000000	      6.42353598	      4.10750859	      6.08885753	     11.92914868	      5.46298643	      6.46941113	     10.55322727	      9.98699639	      6.46941113	      7.34145928	      9.98699639	      5.32775034	      5.96489552	      8.37603152	      4.94719675	      3.67040846	      6.36253081	      4.56664315	     45.88267519	     46.46495871	     33.86439895	      0.00000000	      0.00000000	     13.39894997	      9.84986856	    -12.81499135	     12.04922378	     12.40773099	     20.41657577	     52.33274078	     89.99559364	      0.00000000	      0.00000000	    -18.93417453	   -132.39126841	    -29.79477074	     69.57109416	     89.99559364	      0.00000000	      0.00000000
      2.06666667	     82.14563056	   -149.51936122	     66.62679589	     -0.76438512	      0.32907819	     -0.15229688	     82.57828137	     29.38062125	     17.54105827	     40.24605426	      0.70242616	      1.64865010	    -13.11464713	      0.00000000	     10.51507381	    -39.33133839	    -18.69126048	     27.65415894	      0.48265613	    -32.72883281	    -19.49964887	      0.00000000	      6.93517503	      3.94347894	      5.77772169	     12.87931356	      5.24482699	      6.13882929	     11.39379906	      9.58817470	      6.13882929	      7.92621155	      9.58817470	      5.05550648	      6.44000354	      8.04154226	      4.69439887	      3.96275901	      6.10844888	      4.33329126	     49.53726175	     44.60942249	     32.13395470	      0.00000000	      0.00000000	      9.32133307	      9.28926182	    -10.68716579	     12.25492782	     11.71721670	     24.58790681	     47.06714719	     89.99559364	      0.00000000	      0.00000000	    -22.20464949	   -142.03981450	    -29.84224907	     64.83049263	     89.99559364	      0.00000000	      0.00000000
      2.10000000	     84.48335893	   -153.14795638	     65.16260846	     -0.74259479	      0.34008342	     -0.17755248	     81.16530942	     29.62786385	     21.21761703	     35.47175046	      0.61909884	     -0.09894513	    -13.67275524	      0.00000000	     19.31325225	    -39.51087649	    -16.46554568	     31.91927028	      0.55709636	    -24.82354219	    -19.67915540	      0.00000000	      8.34593092	      3.61461514	      5.48343409	     15.49922830	      4.80743814	      5.82614873	     13.71152990	      8.78857525	      5.82614873	      9.53856444	      8.78857525	      4.79800483	      7.75003145	      7.37092319	      4.45529020	      4.76886493	      5.59903885	      4.11257557	     59.61414994	     40.88924939	     30.49721540	      0.00000000	      0.00000000	      2.44275497	     10.47941892	     -9.59627542	      8.88861248	     13.45594447	     26.51545921	     41.05810599	     89.99559364	      0.00000000	      0.00000000	    -27.12379635	   -152.29172182	    -28.78859003	     59.75291139	     89.99559364	      0.00000000	      0.00000000
      2.13333333	     88.82398919	   -157.26734226	     65.09051728	     -0.71891269	      0.35430142	     -0.20397513	     79.58083058	     29.41327761	     28.78460748	     30.04280783	      0.52434591	     -4.42951666	    -17.59672427	      0.00000000	     32.71157368	    -38.88897570	    -12.31726452	     39.09687628	      0.68236922	    -13.78749518	    -19.78433283	      0.00000000	      9.90876483	      3.16517897	      5.11654385	     18.40156717	      4.20968803	      5.43632785	     16.27910975	      7.69581614	      5.43632785	     11.32472733	      7.69581614	      4.47697587	      9.20127903	      6.45443295	      4.15719188	      5.66186823	      4.90286222	      3.83740789	     70.77731634	     35.80513753	     28.45668195	      0.00000000	      0.00000000	     -4.10147695	     12.27290255	     -7.01899990	      5.12636938	     16.99779689	     28.91256231	     34.41327966	     89.99559364	      0.00000000	      0.00000000	    -30.98970857	   -160.76237446	    -27.23652304	     55.67024289	     89.99559364	      0.00000000	      0.00000000
      2.16666667	     92.62249806	   -161.09642312	     70.28881856	     -0.70547484	      0.35845901	     -0.22814227	     80.91764622	     23.69674036	     31.62635544	     27.96969471	      0.48816326	     -7.24099626	    -18.73940837	      0.00000000	     54.33584862	    -34.24475764	      0.05978406	     50.90819627	      0.88851564	     -0.91996949	    -19.83596484	      0.00000000	     11.26235854	      2.37496548	      4.06515561	     20.91532605	      3.15870409	      4.31922783	     18.50292885	      5.77449107	      4.31922783	     12.87174958	      5.77449107	      3.55701116	     10.45822614	      4.84302961	      3.30293893	      6.43531167	      3.67882153	      3.04886671	     80.44590083	     26.86608453	     22.60917594	      0.00000000	      0.00000000	     -7.37201657	     13.82485289	     -3.42874764	      3.38273688	     20.24276980	     33.84652601	     29.16125323	     89.99559364	      0.00000000	      0.00000000	    -32.93387496	   -168.06388240	    -23.54693612	     52.02280380	     89.99559364	      0.00000000	      0.00000000
      2.20000000	     92.84147497	   -162.84265680	     77.89821623	     -0.70341681	      0.34879701	     -0.24906237	     82.61261007	     15.17283737	     29.62204030	     29.38226868	      0.51281733	     -7.59867767	    -18.97756486	      0.00000000	     76.15708764	    -23.81573406	     13.50721313	     64.61322884	      1.12771358	      9.87482538	    -19.85217596	      0.00000000	     11.94377643	      1.52167771	      2.78386410	     22.18078721	      2.02383136	      2.95785561	     19.62243030	      3.69980719	      2.95785561	     13.65054208	      3.69980719	      2.43588109	     11.09099079	      3.10300519	      2.26188958	      6.82467385	      2.35707878	      2.08789808	     85.31320068	     17.21352263	     15.48301697	      0.00000000	      0.00000000	     -7.54409184	     13.20237345	     -0.42549275	      3.65138893	     21.16597235	     37.03340287	     26.68306078	     89.99559364	      0.00000000	      0.00000000	    -35.92445936	   -173.64897561	    -23.36951870	     45.29298359	     89.99559364	      0.00000000	      0.00000000
      2.23333333	     92.28499417	   -161.65981389	     81.04044083	     -0.70444086	      0.34143896	     -0.26567437	     82.14141939	     11.20357429	     27.89497486	     32.60769715	      0.56911168	     -7.40321549	    -19.11190515	      0.00000000	     91.26535679	    -15.48671519	     19.23933874	     75.43389364	      1.31656981	     17.69518093	    -19.84773743	      0.00000000	     11.92021670	      1.11026867	      2.08736051	     22.13703443	      1.47665734	      2.21782054	     19.58372401	      2.69950725	      2.21782054	     13.62361566	      2.69950725	      1.82644044	     11.06911322	      2.26405988	      1.69598041	      6.81121182	      1.71980618	      1.56552038	     85.14491585	     12.55958129	     11.60927293	      0.00000000	      0.00000000	     -6.49171959	     11.80675294	      2.87148548	      5.62402922	     20.63868192	     43.11106327	     25.06012362	     89.99559364	      0.00000000	      0.00000000	    -38.37236773	   -178.62337698	    -20.92862302	     38.13553020	     89.99559364	      0.00000000	      0.00000000
      2.26666667	     91.19840071	   -158.59219032	     80.95216388	     -0.70483798	      0.33697247	     -0.27858847	     79.92022371	     10.59996087	     26.24718628	     36.49653961	      0.63698478	     -7.15993854	    -19.19430994	      0.00000000	    102.12071301	    -10.51243008	     21.75587747	     81.58163832	      1.42386820	     22.26024428	    -19.83257626	      0.00000000	     11.51811727	      1.01317615	      1.88631142	     21.39029558	      1.34752428	      2.00420588	     18.92311486	      2.46343649	      2.00420588	     13.16405623	      2.46343649	      1.65052249	     10.69572369	      2.06606880	      1.53262803	      6.58145221	      1.56940985	      1.41473356	     82.27275983	     11.46125122	     10.49109822	      0.00000000	      0.00000000	     -5.48511381	      9.85788080	      5.87823808	      7.11752637	     19.71558489	     44.17909195	     24.42062647	     89.99559364	      0.00000000	      0.00000000	    -41.82949647	   -182.52069446	    -20.23079962	     28.52063939	     89.99559364	      0.00000000	      0.00000000
      2.30000000	     90.00960456	   -155.56541757	     80.69027677	     -0.70576748	      0.33274749	     -0.28827207	     77.86203266	     10.57626342	     24.66706387	     41.01469333	      0.71584144	     -6.71296436	    -19.28402832	      0.00000000	    110.28209707	     -6.85592790	     22.17735461	     82.17410331	      1.43420866	     23.62954502	    -19.81138610	      0.00000000	     11.06557414	      0.97223333	      1.69824460	     20.54987773	      1.29307033	      1.80438489	     18.17963175	      2.36388813	      1.80438489	     12.64684468	      2.36388813	      1.48596403	     10.27549214	      1.98257822	      1.37982374	      6.32286906	      1.50598943	      1.27368345	     79.04028949	     10.99809793	      9.44512700	      0.00000000	      0.00000000	     -4.54689886	      7.98840283	      9.19295591	      8.59617594	     18.95687071	     44.95542279	     23.86780940	     89.99559364	      0.00000000	      0.00000000	    -44.82062963	   -185.38045149	    -19.01444349	     19.17280734	     89.99559364	      0.00000000	      0.00000000
